<svg width="37" height="37" viewBox="0 0 37 37" fill="none" xmlns="http://www.w3.org/2000/svg">
<path d="M14.6026 29C5.83865 32.5 4.88647 25.5 1 25.5" stroke="#818CF8" stroke-linecap="round" stroke-linejoin="round"/>
<path d="M26.2621 36V29C26.5324 26.8078 25.8344 24.6077 24.3188 22.875C30.1485 22.875 35.9782 19.375 35.9782 13.25C36.1337 11.0625 35.4536 8.91 34.035 7.125C34.5791 5.1125 34.5791 3.0125 34.035 1C34.035 1 32.0918 1 28.2053 3.625C23.0751 2.75 17.7896 2.75 12.6594 3.625C8.77294 1 6.82971 1 6.82971 1C6.24674 3.0125 6.24674 5.1125 6.82971 7.125C5.41479 8.9028 4.72805 11.0674 4.88648 13.25C4.88648 19.375 10.7162 22.875 16.5459 22.875C15.788 23.7325 15.2245 24.7125 14.8941 25.7625C14.5638 26.8125 14.4666 27.915 14.6026 29V36" stroke="#818CF8" stroke-linecap="round" stroke-linejoin="round"/>
</svg>
